<?xml version="1.0" encoding="UTF-8" standalone="no"?>
<!DOCTYPE svg PUBLIC "-//W3C//DTD SVG 1.1//EN"
"http://www.w3.org/Graphics/SVG/1.1/DTD/svg11.dtd">
<!-- Creator: dpic version 2011.01.24 option -v for SVG 1.1 -->
<!-- width="318" height="251" -->
<svg
 xmlns="http://www.w3.org/2000/svg" xmlns:xlink="http://www.w3.org/1999/xlink"
 xml:space="preserve"
 style="shape-rendering:geometricPrecision; text-rendering:geometricPrecision;
 image-rendering:optimizeQuality; fill-rule:evenodd; clip-rule:evenodd"
 width="318px" height="250.5px"
 viewBox="0 0 318 250.5"
 font-size="11pt" text-anchor="middle"
 stroke="black" stroke-miterlimit="10" stroke-width="1" fill="none">
<g>
<rect x="0.5" y="180.5" width="67.5" height="45" />
<rect x="68" y="180.5" width="67.5" height="45" />
<text stroke-width="0.2pt" fill="black" x="99.785714" y="207.8125">
C
</text>
<rect x="180.5" y="180.5" width="67.5" height="45" />
<text stroke-width="0.2pt" fill="black" x="212.285714" y="207.8125">
D
</text>
<rect x="248" y="180.5" width="67.5" height="45" />
<rect x="0.5" y="90.5" width="135" height="45" />
<text stroke-width="0.2pt" fill="black" x="66.035714" y="117.8125">
A
</text>
<rect x="180.5" y="90.5" width="135" height="45" />
<text stroke-width="0.2pt" fill="black" x="246.035714" y="117.8125">
B
</text>
<rect x="0.5" y="0.5" width="315" height="45" />
<text stroke-width="0.2pt" fill="black" x="156.035714" y="27.8125">
root node
</text>
<line stroke="red"
 x1="90.5" y1="68" x2="270.5" y2="68" />
<text stroke-width="0.2pt" fill="black" x="178.535714" y="65.9375">
①
</text>
<text stroke-width="0.2pt" fill="black" x="178.535714" y="79.6875">

</text>
<line stroke="red"
 stroke-dasharray="4.5,4.5"
 x1="90.5" y1="158" x2="135.5" y2="158" />
<text stroke-width="0.2pt" fill="black" x="111.035714" y="155.9375">
②
</text>
<text stroke-width="0.2pt" fill="black" x="111.035714" y="169.6875">

</text>
<line stroke="red"
 stroke-dasharray="4.5,4.5"
 x1="180.5" y1="158" x2="270.5" y2="158" />
<text stroke-width="0.2pt" fill="black" x="223.535714" y="155.9375">
③
</text>
<text stroke-width="0.2pt" fill="black" x="223.535714" y="169.6875">

</text>
<line stroke="red"
 stroke-dasharray="4.5,4.5"
 x1="270.5" y1="248" x2="248" y2="248" />
<text stroke-width="0.2pt" fill="black" x="257.285714" y="245.9375">
④
</text>
<text stroke-width="0.2pt" fill="black" x="257.285714" y="259.6875">

</text>
<line x1="105.5" y1="45.5" x2="68" y2="90.5" />
<line x1="210.5" y1="45.5" x2="248" y2="90.5" />
<line x1="45.5" y1="135.5" x2="34.25" y2="180.5" />
<line x1="90.5" y1="135.5" x2="101.75" y2="180.5" />
<line x1="225.5" y1="135.5" x2="214.25" y2="180.5" />
<line x1="270.5" y1="135.5" x2="281.75" y2="180.5" />
</g></svg>
