<?xml version="1.0" encoding="UTF-8"?>
<svg xmlns="http://www.w3.org/2000/svg" xmlns:xlink="http://www.w3.org/1999/xlink" width="342pt" height="62pt" viewBox="0 0 342 62" version="1.1">
<g id="surface638">
<rect x="0" y="0" width="342" height="62" style="fill:rgb(100%,100%,100%);fill-opacity:1;stroke:none;"/>
<path style="fill-rule:evenodd;fill:rgb(100%,100%,100%);fill-opacity:1;stroke-width:0.1;stroke-linecap:butt;stroke-linejoin:miter;stroke:rgb(0%,0%,0%);stroke-opacity:1;stroke-miterlimit:10;" d="M 23 7.5 C 23 7.776172 22.776172 8 22.5 8 C 22.223828 8 22 7.776172 22 7.5 C 22 7.223828 22.223828 7 22.5 7 C 22.776172 7 23 7.223828 23 7.5 " transform="matrix(20,0,0,20,-259,-139)"/>
<path style="fill-rule:evenodd;fill:rgb(100%,100%,100%);fill-opacity:1;stroke-width:0.1;stroke-linecap:butt;stroke-linejoin:miter;stroke:rgb(0%,0%,0%);stroke-opacity:1;stroke-miterlimit:10;" d="M 24 8.5 C 24 8.776172 23.776172 9 23.5 9 C 23.223828 9 23 8.776172 23 8.5 C 23 8.223828 23.223828 8 23.5 8 C 23.776172 8 24 8.223828 24 8.5 " transform="matrix(20,0,0,20,-259,-139)"/>
<path style="fill-rule:evenodd;fill:rgb(100%,100%,100%);fill-opacity:1;stroke-width:0.1;stroke-linecap:butt;stroke-linejoin:miter;stroke:rgb(0%,0%,0%);stroke-opacity:1;stroke-miterlimit:10;" d="M 22 8.5 C 22 8.776172 21.776172 9 21.5 9 C 21.223828 9 21 8.776172 21 8.5 C 21 8.223828 21.223828 8 21.5 8 C 21.776172 8 22 8.223828 22 8.5 " transform="matrix(20,0,0,20,-259,-139)"/>
<path style="fill:none;stroke-width:0.1;stroke-linecap:butt;stroke-linejoin:miter;stroke:rgb(0%,0%,0%);stroke-opacity:1;stroke-miterlimit:10;" d="M 22.110742 7.889258 L 21.853516 8.146484 " transform="matrix(20,0,0,20,-259,-139)"/>
<path style="fill:none;stroke-width:0.1;stroke-linecap:butt;stroke-linejoin:miter;stroke:rgb(0%,0%,0%);stroke-opacity:1;stroke-miterlimit:10;" d="M 22.888867 7.888867 L 23.111133 8.111133 " transform="matrix(20,0,0,20,-259,-139)"/>
<path style="fill-rule:evenodd;fill:rgb(100%,100%,100%);fill-opacity:1;stroke-width:0.1;stroke-linecap:butt;stroke-linejoin:miter;stroke:rgb(0%,0%,0%);stroke-opacity:1;stroke-miterlimit:10;" d="M 15 8.5 C 15 8.776172 14.776172 9 14.5 9 C 14.223828 9 14 8.776172 14 8.5 C 14 8.223828 14.223828 8 14.5 8 C 14.776172 8 15 8.223828 15 8.5 " transform="matrix(20,0,0,20,-259,-139)"/>
<path style="fill-rule:evenodd;fill:rgb(100%,100%,100%);fill-opacity:1;stroke-width:0.1;stroke-linecap:butt;stroke-linejoin:miter;stroke:rgb(0%,0%,0%);stroke-opacity:1;stroke-miterlimit:10;" d="M 16 7.5 C 16 7.776172 15.776172 8 15.5 8 C 15.223828 8 15 7.776172 15 7.5 C 15 7.223828 15.223828 7 15.5 7 C 15.776172 7 16 7.223828 16 7.5 " transform="matrix(20,0,0,20,-259,-139)"/>
<path style="fill-rule:evenodd;fill:rgb(100%,100%,100%);fill-opacity:1;stroke-width:0.1;stroke-linecap:butt;stroke-linejoin:miter;stroke:rgb(0%,0%,0%);stroke-opacity:1;stroke-miterlimit:10;" d="M 14 9.5 C 14 9.776172 13.776172 10 13.5 10 C 13.223828 10 13 9.776172 13 9.5 C 13 9.223828 13.223828 9 13.5 9 C 13.776172 9 14 9.223828 14 9.5 " transform="matrix(20,0,0,20,-259,-139)"/>
<path style="fill:none;stroke-width:0.1;stroke-linecap:butt;stroke-linejoin:miter;stroke:rgb(0%,0%,0%);stroke-opacity:1;stroke-miterlimit:10;" d="M 14.110742 8.889258 L 13.853516 9.146484 " transform="matrix(20,0,0,20,-259,-139)"/>
<path style="fill:none;stroke-width:0.1;stroke-linecap:butt;stroke-linejoin:miter;stroke:rgb(0%,0%,0%);stroke-opacity:1;stroke-miterlimit:10;" d="M 14.888867 8.111133 L 15.111133 7.888867 " transform="matrix(20,0,0,20,-259,-139)"/>
<path style="fill-rule:evenodd;fill:rgb(100%,100%,100%);fill-opacity:1;stroke-width:0.1;stroke-linecap:butt;stroke-linejoin:miter;stroke:rgb(0%,0%,0%);stroke-opacity:1;stroke-miterlimit:10;" d="M 19 8.5 C 19 8.776172 18.776172 9 18.5 9 C 18.223828 9 18 8.776172 18 8.5 C 18 8.223828 18.223828 8 18.5 8 C 18.776172 8 19 8.223828 19 8.5 " transform="matrix(20,0,0,20,-259,-139)"/>
<path style="fill-rule:evenodd;fill:rgb(100%,100%,100%);fill-opacity:1;stroke-width:0.1;stroke-linecap:butt;stroke-linejoin:miter;stroke:rgb(0%,0%,0%);stroke-opacity:1;stroke-miterlimit:10;" d="M 18 7.5 C 18 7.776172 17.776172 8 17.5 8 C 17.223828 8 17 7.776172 17 7.5 C 17 7.223828 17.223828 7 17.5 7 C 17.776172 7 18 7.223828 18 7.5 " transform="matrix(20,0,0,20,-259,-139)"/>
<path style="fill-rule:evenodd;fill:rgb(100%,100%,100%);fill-opacity:1;stroke-width:0.1;stroke-linecap:butt;stroke-linejoin:miter;stroke:rgb(0%,0%,0%);stroke-opacity:1;stroke-miterlimit:10;" d="M 20 9.5 C 20 9.776172 19.776172 10 19.5 10 C 19.223828 10 19 9.776172 19 9.5 C 19 9.223828 19.223828 9 19.5 9 C 19.776172 9 20 9.223828 20 9.5 " transform="matrix(20,0,0,20,-259,-139)"/>
<path style="fill:none;stroke-width:0.1;stroke-linecap:butt;stroke-linejoin:miter;stroke:rgb(0%,0%,0%);stroke-opacity:1;stroke-miterlimit:10;" d="M 18.888867 8.888867 L 19.111133 9.111133 " transform="matrix(20,0,0,20,-259,-139)"/>
<path style="fill:none;stroke-width:0.1;stroke-linecap:butt;stroke-linejoin:miter;stroke:rgb(0%,0%,0%);stroke-opacity:1;stroke-miterlimit:10;" d="M 18.111133 8.111133 L 17.888867 7.888867 " transform="matrix(20,0,0,20,-259,-139)"/>
<path style="fill-rule:evenodd;fill:rgb(100%,100%,100%);fill-opacity:1;stroke-width:0.1;stroke-linecap:butt;stroke-linejoin:miter;stroke:rgb(0%,0%,0%);stroke-opacity:1;stroke-miterlimit:10;" d="M 26 8.5 C 26 8.776172 25.776172 9 25.5 9 C 25.223828 9 25 8.776172 25 8.5 C 25 8.223828 25.223828 8 25.5 8 C 25.776172 8 26 8.223828 26 8.5 " transform="matrix(20,0,0,20,-259,-139)"/>
<path style="fill-rule:evenodd;fill:rgb(100%,100%,100%);fill-opacity:1;stroke-width:0.1;stroke-linecap:butt;stroke-linejoin:miter;stroke:rgb(0%,0%,0%);stroke-opacity:1;stroke-miterlimit:10;" d="M 27 7.5 C 27 7.776172 26.776172 8 26.5 8 C 26.223828 8 26 7.776172 26 7.5 C 26 7.223828 26.223828 7 26.5 7 C 26.776172 7 27 7.223828 27 7.5 " transform="matrix(20,0,0,20,-259,-139)"/>
<path style="fill-rule:evenodd;fill:rgb(100%,100%,100%);fill-opacity:1;stroke-width:0.1;stroke-linecap:butt;stroke-linejoin:miter;stroke:rgb(0%,0%,0%);stroke-opacity:1;stroke-miterlimit:10;" d="M 27 9.5 C 27 9.776172 26.776172 10 26.5 10 C 26.223828 10 26 9.776172 26 9.5 C 26 9.223828 26.223828 9 26.5 9 C 26.776172 9 27 9.223828 27 9.5 " transform="matrix(20,0,0,20,-259,-139)"/>
<path style="fill:none;stroke-width:0.1;stroke-linecap:butt;stroke-linejoin:miter;stroke:rgb(0%,0%,0%);stroke-opacity:1;stroke-miterlimit:10;" d="M 25.888867 8.888867 L 26.111133 9.111133 " transform="matrix(20,0,0,20,-259,-139)"/>
<path style="fill:none;stroke-width:0.1;stroke-linecap:butt;stroke-linejoin:miter;stroke:rgb(0%,0%,0%);stroke-opacity:1;stroke-miterlimit:10;" d="M 25.888867 8.111133 L 26.111133 7.888867 " transform="matrix(20,0,0,20,-259,-139)"/>
<path style="fill-rule:evenodd;fill:rgb(100%,100%,100%);fill-opacity:1;stroke-width:0.1;stroke-linecap:butt;stroke-linejoin:miter;stroke:rgb(0%,0%,0%);stroke-opacity:1;stroke-miterlimit:10;" d="M 30 8.5 C 30 8.776172 29.776172 9 29.5 9 C 29.223828 9 29 8.776172 29 8.5 C 29 8.223828 29.223828 8 29.5 8 C 29.776172 8 30 8.223828 30 8.5 " transform="matrix(20,0,0,20,-259,-139)"/>
<path style="fill-rule:evenodd;fill:rgb(100%,100%,100%);fill-opacity:1;stroke-width:0.1;stroke-linecap:butt;stroke-linejoin:miter;stroke:rgb(0%,0%,0%);stroke-opacity:1;stroke-miterlimit:10;" d="M 29 7.5 C 29 7.776172 28.776172 8 28.5 8 C 28.223828 8 28 7.776172 28 7.5 C 28 7.223828 28.223828 7 28.5 7 C 28.776172 7 29 7.223828 29 7.5 " transform="matrix(20,0,0,20,-259,-139)"/>
<path style="fill-rule:evenodd;fill:rgb(100%,100%,100%);fill-opacity:1;stroke-width:0.1;stroke-linecap:butt;stroke-linejoin:miter;stroke:rgb(0%,0%,0%);stroke-opacity:1;stroke-miterlimit:10;" d="M 29 9.5 C 29 9.776172 28.776172 10 28.5 10 C 28.223828 10 28 9.776172 28 9.5 C 28 9.223828 28.223828 9 28.5 9 C 28.776172 9 29 9.223828 29 9.5 " transform="matrix(20,0,0,20,-259,-139)"/>
<path style="fill:none;stroke-width:0.1;stroke-linecap:butt;stroke-linejoin:miter;stroke:rgb(0%,0%,0%);stroke-opacity:1;stroke-miterlimit:10;" d="M 29.111133 8.888867 L 28.888867 9.111133 " transform="matrix(20,0,0,20,-259,-139)"/>
<path style="fill:none;stroke-width:0.1;stroke-linecap:butt;stroke-linejoin:miter;stroke:rgb(0%,0%,0%);stroke-opacity:1;stroke-miterlimit:10;" d="M 29.111133 8.111133 L 28.888867 7.888867 " transform="matrix(20,0,0,20,-259,-139)"/>
</g>
</svg>
